HIERARCHY
ROOT joint_Root
{
	OFFSET 0.0 0.0 0.0
	CHANNELS 6 Xposition Yposition Zposition Zrotation Xrotation Yrotation 
	JOINT Hips
	{
		OFFSET -0.726466 93.3139 -2.00062
		CHANNELS 6 Xposition Yposition Zposition Zrotation Xrotation Yrotation 
		JOINT Spine
		{
			OFFSET 15.7357 0.0 0.0
			CHANNELS 6 Xposition Yposition Zposition Zrotation Xrotation Yrotation 
			JOINT Chest
			{
				OFFSET 8.98455 -0.406207 0.0
				CHANNELS 6 Xposition Yposition Zposition Zrotation Xrotation Yrotation 
				JOINT Neck
				{
					OFFSET 16.3773 0.0 0.0
					CHANNELS 6 Xposition Yposition Zposition Zrotation Xrotation Yrotation 
					JOINT Head
					{
						OFFSET 6.45672 0.0 0.0
						CHANNELS 6 Xposition Yposition Zposition Zrotation Xrotation Yrotation 
						End Site
						{
							OFFSET 0.0 0.0 0.0
						}
					}
				}
				JOINT Shoulder_L
				{
					OFFSET 12.9942 -0.242716 4.98039
					CHANNELS 6 Xposition Yposition Zposition Zrotation Xrotation Yrotation 
					JOINT UpperArm_L
					{
						OFFSET 5.34809 0.0 0.0
						CHANNELS 6 Xposition Yposition Zposition Zrotation Xrotation Yrotation 
						JOINT LowerArm_L
						{
							OFFSET 24.3286 1.87007e-05 0.0
							CHANNELS 6 Xposition Yposition Zposition Zrotation Xrotation Yrotation 
							JOINT Hand_L
							{
								OFFSET 22.2916 0.0 0.0
								CHANNELS 6 Xposition Yposition Zposition Zrotation Xrotation Yrotation 
								End Site
								{
									OFFSET 0.0 0.0 0.0
								}
							}
						}
					}
				}
				JOINT Shoulder_R
				{
					OFFSET 12.9945 -0.242716 -4.98039
					CHANNELS 6 Xposition Yposition Zposition Zrotation Xrotation Yrotation 
					JOINT UpperArm_R
					{
						OFFSET -5.34813 0.0 0.0
						CHANNELS 6 Xposition Yposition Zposition Zrotation Xrotation Yrotation 
						JOINT LowerArm_R
						{
							OFFSET -24.3289 0.000322201 0.0
							CHANNELS 6 Xposition Yposition Zposition Zrotation Xrotation Yrotation 
							JOINT Hand_R
							{
								OFFSET -22.2915 -0.000108084 0.0
								CHANNELS 6 Xposition Yposition Zposition Zrotation Xrotation Yrotation 
								End Site
								{
									OFFSET 0.0 0.0 0.0
								}
							}
						}
					}
				}
			}
		}
		JOINT UpperLeg_L
		{
			OFFSET -2.19248 -6.46944 0.0
			CHANNELS 6 Xposition Yposition Zposition Zrotation Xrotation Yrotation 
			JOINT LowerLeg_L
			{
				OFFSET 39.0811 0.0 -1.23785e-05
				CHANNELS 6 Xposition Yposition Zposition Zrotation Xrotation Yrotation 
				JOINT Foot_L
				{
					OFFSET 40.9854 0.0 -1.26872e-05
					CHANNELS 6 Xposition Yposition Zposition Zrotation Xrotation Yrotation 
					JOINT Toes_L
					{
						OFFSET 11.7543 0.0 0.0
						CHANNELS 6 Xposition Yposition Zposition Zrotation Xrotation Yrotation 
						End Site
						{
							OFFSET 0.0 0.0 0.0
						}
					}
				}
			}
		}
		JOINT UpperLeg_R
		{
			OFFSET -2.19251 6.46944 0.0
			CHANNELS 6 Xposition Yposition Zposition Zrotation Xrotation Yrotation 
			JOINT LowerLeg_R
			{
				OFFSET -39.0811 -0.00228153 -0.0401928
				CHANNELS 6 Xposition Yposition Zposition Zrotation Xrotation Yrotation 
				JOINT Foot_R
				{
					OFFSET -40.9854 0.0 0.0
					CHANNELS 6 Xposition Yposition Zposition Zrotation Xrotation Yrotation 
					JOINT Toes_R
					{
						OFFSET -11.7543 0.0 0.0
						CHANNELS 6 Xposition Yposition Zposition Zrotation Xrotation Yrotation 
						End Site
						{
							OFFSET 0.0 0.0 0.0
						}
					}
				}
			}
		}
	}
}
MOTION
Frames:	7
Frame Time:	0.0333333
0.000000 0.000000 0.000000 0.000000 0.000000 -0.000000 -0.896406 92.060400 0.012990 87.984800 -0.120465 3.348030 15.735700 0.000005 -0.000001 78.137400 87.574400 -77.428400 8.984550 -0.406207 -0.000000 -3.011790 -1.063460 1.390290 16.377300 -0.000001 -0.000001 -3.778440 -2.150740 0.823849 6.456720 -0.000001 -0.000000 -3.670760 -2.022350 0.835785 12.994200 -0.242716 4.980390 -84.661600 -11.542700 -64.968200 5.348090 -0.000007 -0.000001 -65.458100 -53.304100 -93.723200 24.328600 0.000019 0.000005 0.326720 0.230514 -54.793100 22.291600 -0.000001 0.000005 19.703900 5.626440 -13.074100 12.994500 -0.242716 -4.980390 92.688900 -6.295010 -66.813100 -5.348130 -0.000001 -0.000004 -59.437800 -52.349200 -105.607000 -24.328900 0.000322 -0.000009 -1.956190 -2.311900 -40.238100 -22.291500 -0.000108 -0.000004 20.829100 5.563210 -9.345220 -2.192480 -6.469440 -0.000000 -168.931000 -17.357600 -2.166660 39.081100 -0.000007 -0.000012 -0.172426 0.442842 21.274300 40.985400 -0.000006 -0.000013 -7.192990 -1.484530 -63.499200 11.754300 -0.000000 0.000003 -0.000098 -0.001016 -16.616500 -2.192510 6.469440 -0.000001 174.099000 22.123600 179.999000 -39.081100 -0.002282 -0.040193 0.019727 -0.045809 19.703400 -40.985400 0.000008 0.000006 -1.857710 -0.217571 -64.000600 -11.754300 -0.000006 -0.000006 -0.003755 -0.048865 -18.560700
0.000000 0.000000 0.000000 0.000000 0.000000 -0.000000 -0.897071 92.064100 0.041580 88.022000 -0.102927 3.331830 15.735700 0.000005 -0.000001 78.753200 87.567500 -78.052700 8.984550 -0.406207 -0.000000 -2.988030 -1.014180 1.374850 16.377300 -0.000001 -0.000001 -3.806150 -2.140260 0.794669 6.456720 -0.000001 -0.000000 -3.675080 -2.070180 0.774814 12.994200 -0.242716 4.980390 -84.665500 -11.547200 -64.992500 5.348090 -0.000007 -0.000001 -65.503600 -53.341600 -93.684700 24.328600 0.000019 0.000005 0.283506 0.200609 -54.713700 22.291600 -0.000001 0.000005 19.735800 5.625750 -13.024300 12.994500 -0.242716 -4.980390 92.678900 -6.247290 -66.733400 -5.348130 -0.000001 -0.000004 -59.656600 -52.390100 -105.799000 -24.328900 0.000322 -0.000009 -1.896890 -2.245380 -40.191700 -22.291500 -0.000108 -0.000004 20.821100 5.562990 -9.334880 -2.192480 -6.469440 -0.000000 -168.976000 -17.315200 -2.137010 39.081100 -0.000007 -0.000012 -0.171143 0.441205 21.201500 40.985400 -0.000006 -0.000013 -7.209410 -1.546530 -63.479300 11.754300 -0.000000 0.000003 -0.000097 -0.001002 -16.616000 -2.192510 6.469440 -0.000001 174.053000 22.162400 -179.978000 -39.081100 -0.002282 -0.040193 0.019104 -0.044131 19.678300 -40.985400 0.000008 0.000006 -1.873440 -0.166108 -64.009800 -11.754300 -0.000006 -0.000006 -0.003684 -0.048113 -18.530100
0.000000 0.000000 0.000000 0.000000 0.000000 -0.000000 -0.915143 92.055300 0.066352 87.977600 -0.052918 3.314850 15.735700 0.000005 -0.000001 78.523500 87.557200 -77.808700 8.984550 -0.406207 -0.000000 -2.971400 -1.038630 1.402860 16.377300 -0.000001 -0.000001 -3.788980 -2.142390 0.810801 6.456720 -0.000001 -0.000000 -3.686730 -2.038150 0.727706 12.994200 -0.242716 4.980390 -84.662400 -11.531800 -64.950900 5.348090 -0.000007 -0.000001 -65.503200 -53.396500 -93.677100 24.328600 0.000019 0.000005 0.329768 0.234213 -54.613800 22.291600 -0.000001 0.000005 19.744900 5.625860 -13.032100 12.994500 -0.242716 -4.980390 92.668500 -6.211240 -66.694700 -5.348130 -0.000001 -0.000004 -59.843800 -52.409500 -105.975000 -24.328900 0.000322 -0.000009 -1.850860 -2.193410 -40.158000 -22.291500 -0.000108 -0.000004 20.805000 5.561900 -9.280880 -2.192480 -6.469440 -0.000000 -168.911000 -17.352700 -2.181690 39.081100 -0.000007 -0.000012 -0.172803 0.443736 21.277600 40.985400 -0.000006 -0.000013 -7.212700 -1.459250 -63.517500 11.754300 -0.000000 0.000003 -0.000099 -0.001018 -16.616600 -2.192510 6.469440 -0.000001 174.096000 22.226100 -179.968000 -39.081100 -0.002282 -0.040193 0.017409 -0.039384 19.681300 -40.985400 0.000008 0.000006 -1.919640 -0.170559 -64.031300 -11.754300 -0.000006 -0.000006 -0.003453 -0.045625 -18.428800
0.000000 0.000000 0.000000 0.000000 0.000000 -0.000000 -0.932015 92.054600 0.100127 87.992500 0.007089 3.301220 15.735700 0.000005 -0.000001 78.247700 87.539200 -77.545800 8.984550 -0.406207 -0.000000 -2.940990 -1.067580 1.376660 16.377300 -0.000001 -0.000001 -3.773640 -2.144010 0.828913 6.456720 -0.000001 -0.000000 -3.634310 -2.030680 0.793347 12.994200 -0.242716 4.980390 -84.652900 -11.528800 -64.905700 5.348090 -0.000007 -0.000001 -65.649100 -53.415300 -93.808100 24.328600 0.000019 0.000005 0.351706 0.250390 -54.549500 22.291600 -0.000001 0.000005 19.710800 5.625120 -12.979300 12.994500 -0.242716 -4.980390 92.652400 -6.162960 -66.658700 -5.348130 -0.000001 -0.000004 -59.935500 -52.476500 -106.060000 -24.328900 0.000322 -0.000009 -1.828960 -2.169690 -40.128500 -22.291500 -0.000108 -0.000004 20.787400 5.560930 -9.233300 -2.192480 -6.469440 -0.000000 -168.918000 -17.285200 -2.168130 39.081100 -0.000007 -0.000012 -0.173118 0.445507 21.235600 40.985400 -0.000006 -0.000013 -7.225470 -1.432290 -63.510900 11.754300 -0.000000 0.000003 -0.000103 -0.001055 -16.618000 -2.192510 6.469440 -0.000001 174.087000 22.241800 -179.943000 -39.081100 -0.002282 -0.040193 0.018071 -0.041259 19.670300 -40.985400 0.000008 0.000006 -1.952370 -0.206920 -64.056400 -11.754300 -0.000006 -0.000006 -0.003678 -0.048050 -18.527500
0.000000 0.000000 0.000000 0.000000 0.000000 -0.000000 -0.941963 92.059100 0.133108 87.996500 0.055161 3.304480 15.735700 0.000005 -0.000001 78.097800 87.528900 -77.399800 8.984550 -0.406207 -0.000000 -2.923270 -1.083980 1.368530 16.377300 -0.000001 -0.000001 -3.688880 -2.159620 0.812621 6.456720 -0.000001 -0.000000 -3.618600 -2.053830 0.828225 12.994200 -0.242716 4.980390 -84.660000 -11.500700 -64.882200 5.348090 -0.000007 -0.000001 -65.663900 -53.383800 -93.801700 24.328600 0.000019 0.000005 0.266613 0.189773 -54.553700 22.291600 -0.000001 0.000005 19.722200 5.625010 -12.971200 12.994500 -0.242716 -4.980390 92.644100 -6.122920 -66.589000 -5.348130 -0.000001 -0.000004 -59.939600 -52.494300 -106.105000 -24.328900 0.000322 -0.000009 -1.840530 -2.186690 -40.086500 -22.291500 -0.000108 -0.000004 20.693400 5.560690 -9.220940 -2.192480 -6.469440 -0.000000 -168.917000 -17.312300 -2.132660 39.081100 -0.000007 -0.000012 -0.170919 0.440857 21.191400 40.985400 -0.000006 -0.000013 -7.220450 -1.402420 -63.495200 11.754300 -0.000000 0.000003 -0.000104 -0.001063 -16.618300 -2.192510 6.469440 -0.000001 174.085000 22.294200 -179.898000 -39.081100 -0.002282 -0.040193 0.019348 -0.044889 19.647500 -40.985400 0.000008 0.000006 -1.836510 -0.229618 -64.074200 -11.754300 -0.000006 -0.000006 -0.003418 -0.045248 -18.413400
0.000000 0.000000 0.000000 0.000000 0.000000 -0.000000 -0.944479 92.046300 0.167976 88.008800 0.082742 3.293520 15.735700 0.000005 -0.000001 78.111900 87.519900 -77.416300 8.984550 -0.406207 -0.000000 -2.905560 -1.086130 1.363860 16.377300 -0.000001 -0.000001 -3.607130 -2.158430 0.836349 6.456720 -0.000001 -0.000000 -3.626100 -2.038570 0.788988 12.994200 -0.242716 4.980390 -84.666300 -11.483100 -64.875000 5.348090 -0.000007 -0.000001 -65.563900 -53.384300 -93.687900 24.328600 0.000019 0.000005 0.264405 0.188139 -54.562600 22.291600 -0.000001 0.000005 19.676900 5.625280 -12.990800 12.994500 -0.242716 -4.980390 92.644900 -6.114290 -66.552800 -5.348130 -0.000001 -0.000004 -59.831400 -52.590600 -106.033000 -24.328900 0.000322 -0.000009 -1.824870 -2.171360 -40.043400 -22.291500 -0.000108 -0.000004 20.621800 5.561660 -9.269050 -2.192480 -6.469440 -0.000000 -168.921000 -17.290100 -2.159650 39.081100 -0.000007 -0.000012 -0.173322 0.445612 21.253900 40.985400 -0.000006 -0.000013 -7.231330 -1.386750 -63.542700 11.754300 -0.000000 0.000003 -0.000113 -0.001142 -16.621300 -2.192510 6.469440 -0.000001 174.053000 22.309300 -179.893000 -39.081100 -0.002282 -0.040193 0.017905 -0.040733 19.698200 -40.985400 0.000008 0.000006 -1.935170 -0.200308 -64.130600 -11.754300 -0.000006 -0.000006 -0.003572 -0.046914 -18.481300
0.000000 0.000000 0.000000 0.000000 0.000000 -0.000000 -0.949197 92.046600 0.211330 87.996100 0.110889 3.310700 15.735700 0.000005 -0.000001 78.142700 87.501000 -77.445100 8.984550 -0.406207 -0.000000 -2.867820 -1.091280 1.367990 16.377300 -0.000001 -0.000001 -3.547100 -2.176690 0.846491 6.456720 -0.000001 -0.000000 -3.628360 -2.066370 0.749760 12.994200 -0.242716 4.980390 -84.681200 -11.439000 -64.853400 5.348090 -0.000007 -0.000001 -65.383600 -53.365000 -93.585200 24.328600 0.000019 0.000005 0.418677 0.298329 -54.526600 22.291600 -0.000001 0.000005 19.639700 5.624960 -12.968000 12.994500 -0.242716 -4.980390 92.638000 -6.078470 -66.485700 -5.348130 -0.000001 -0.000004 -59.715700 -52.622400 -105.971000 -24.328900 0.000322 -0.000009 -1.876920 -2.236980 -39.998400 -22.291500 -0.000108 -0.000004 20.666600 5.563540 -9.362840 -2.192480 -6.469440 -0.000000 -168.891000 -17.290300 -2.107890 39.081100 -0.000007 -0.000012 -0.172646 0.444326 21.234200 40.985400 -0.000006 -0.000013 -7.241200 -1.373080 -63.553300 11.754300 -0.000000 0.000003 -0.000100 -0.001031 -16.617100 -2.192510 6.469440 -0.000001 174.072000 22.325800 -179.847000 -39.081100 -0.002282 -0.040193 0.021691 -0.051301 19.700800 -40.985400 0.000008 0.000006 -1.793580 -0.253335 -64.165700 -11.754300 -0.000006 -0.000006 -0.003483 -0.045946 -18.441800
